<svg version="1.1" xmlns="http://www.w3.org/2000/svg" xmlns:xlink="http://www.w3.org/1999/xlink" width="515" height="131"><defs/><g><g transform="translate(-214,-246) scale(1,1)"><rect fill="#C0C0C0" stroke="none" x="231" y="263" width="209" height="100" opacity="0.2"/></g><g transform="translate(-214,-246) scale(1,1)"><rect fill="#ffffff" stroke="none" x="224" y="256" width="209" height="100"/></g><g transform="translate(-214,-246) scale(1,1)"><path fill="none" stroke="#000000" d="M 224 256 L 433 256 L 433 356 L 224 356 L 224 256 Z Z" stroke-miterlimit="10"/></g><g transform="translate(-214,-246) scale(1,1)"><path fill="none" stroke="#000000" d="M 224 281 L 433 281" stroke-miterlimit="10"/></g><g transform="translate(-214,-246) scale(1,1)"><path fill="none" stroke="#000000" d="M 224 319 L 433 319" stroke-miterlimit="10"/></g><g transform="translate(-214,-246) scale(1,1)"><g><path fill="none" stroke="none"/><text fill="#000000" stroke="none" font-family="Arial" font-size="13px" font-style="normal" font-weight="bold" text-decoration="none" x="300.5" y="275.5">Customer</text></g></g><g transform="translate(-214,-246) scale(1,1)"><g><path fill="none" stroke="none"/><text fill="#000000" stroke="none" font-family="Arial" font-size="13px" font-style="normal" font-weight="normal" text-decoration="none" x="229" y="298.5">+name: string</text></g></g><g transform="translate(-214,-246) scale(1,1)"><g><path fill="none" stroke="none"/><text fill="#000000" stroke="none" font-family="Arial" font-size="13px" font-style="normal" font-weight="normal" text-decoration="none" x="229" y="313.5">+email: string {unique}</text></g></g><g transform="translate(-214,-246) scale(1,1)"><g><path fill="none" stroke="none"/><text fill="#000000" stroke="none" font-family="Arial" font-size="13px" font-style="normal" font-weight="normal" text-decoration="none" x="229" y="336.5">+create_address(attributes: Hash)</text></g></g><g transform="translate(-214,-246) scale(1,1)"><g><path fill="none" stroke="none"/><text fill="#000000" stroke="none" font-family="Arial" font-size="13px" font-style="normal" font-weight="normal" text-decoration="none" x="229" y="351.5">+update_address(attributes: Hash)</text></g></g><g transform="translate(-214,-246) scale(1,1)"><rect fill="#C0C0C0" stroke="none" x="583" y="279" width="143" height="72" opacity="0.2"/></g><g transform="translate(-214,-246) scale(1,1)"><rect fill="#ffffff" stroke="none" x="576" y="272" width="143" height="72"/></g><g transform="translate(-214,-246) scale(1,1)"><path fill="none" stroke="#000000" d="M 576 272 L 719 272 L 719 344 L 576 344 L 576 272 Z Z" stroke-miterlimit="10"/></g><g transform="translate(-214,-246) scale(1,1)"><path fill="none" stroke="#000000" d="M 576 297 L 719 297" stroke-miterlimit="10"/></g><g transform="translate(-214,-246) scale(1,1)"><path fill="none" stroke="#000000" d="M 576 335 L 719 335" stroke-miterlimit="10"/></g><g transform="translate(-214,-246) scale(1,1)"><g><path fill="none" stroke="none"/><text fill="#000000" stroke="none" font-family="Arial" font-size="13px" font-style="normal" font-weight="bold" text-decoration="none" x="623.5" y="291.5">Address</text></g></g><g transform="translate(-214,-246) scale(1,1)"><g><path fill="none" stroke="none"/><text fill="#000000" stroke="none" font-family="Arial" font-size="13px" font-style="normal" font-weight="normal" text-decoration="none" x="581" y="314.5">+street_address: string</text></g></g><g transform="translate(-214,-246) scale(1,1)"><g><path fill="none" stroke="none"/><text fill="#000000" stroke="none" font-family="Arial" font-size="13px" font-style="normal" font-weight="normal" text-decoration="none" x="581" y="329.5">+city: string</text></g></g><g transform="translate(-214,-246) scale(1,1)"><path fill="none" stroke="#000000" d="M 575 299 L 480 288 L 434 293" stroke-miterlimit="10"/></g><g transform="translate(-214,-246) scale(1,1)"><path fill="#000000" stroke="none" d="M 443.648289899537 287.71696091113347 L 434 293 L 444.55804397982746 296.08669844980517 L 455.871178187528 290.62269802309476"/></g><g transform="translate(-214,-246) scale(1,1)"><path fill="none" stroke="#000000" d="M 443.648289899537 287.71696091113347 L 434 293 L 444.55804397982746 296.08669844980517 L 455.871178187528 290.62269802309476 L 443.648289899537 287.71696091113347" stroke-miterlimit="10"/></g><g transform="translate(-214,-246) scale(1,1)"><g><path fill="none" stroke="none"/><text fill="#000000" stroke="none" font-family="Arial" font-size="13px" font-style="normal" font-weight="normal" text-decoration="none" x="439.5" y="316.5">+historical_addresses</text></g></g><g transform="translate(-214,-246) scale(1,1)"><g><path fill="none" stroke="none"/><text fill="#000000" stroke="none" font-family="Arial" font-size="13px" font-style="normal" font-weight="normal" text-decoration="none" x="543.5" y="290.5">0..*</text></g></g><g transform="translate(-214,-246) scale(1,1)"><path fill="none" stroke="#000000" d="M 575 338 L 560 344 L 434 323" stroke-miterlimit="10"/></g><g transform="translate(-214,-246) scale(1,1)"><path fill="#000000" stroke="none" d="M 444.7164411855751 320.5184907181093 L 434 323 L 443.33236027330923 328.8229761917047 L 455.7006663243072 326.61677772071783"/></g><g transform="translate(-214,-246) scale(1,1)"><path fill="none" stroke="#000000" d="M 444.7164411855751 320.5184907181093 L 434 323 L 443.33236027330923 328.8229761917047 L 455.7006663243072 326.61677772071783 L 444.7164411855751 320.5184907181093" stroke-miterlimit="10"/></g><g transform="translate(-214,-246) scale(1,1)"><g><path fill="none" stroke="none"/><text fill="#000000" stroke="none" font-family="Arial" font-size="13px" font-style="normal" font-weight="normal" text-decoration="none" x="528.5" y="367.5">+address</text></g></g></g></svg>